<svg width="32" height="32" viewBox="0 0 32 32" fill="none" xmlns="http://www.w3.org/2000/svg">
<path d="M2.66667 3.99611C1.20087 3.99611 0 5.19691 0 6.66278V25.3294C0 26.7952 1.20087 27.9961 2.66667 27.9961H4.5651C4.63242 28.0065 4.70092 28.0065 4.76823 27.9961H27.2318C27.2991 28.0065 27.3676 28.0065 27.4349 27.9961H29.3333C30.7991 27.9961 32 26.7952 32 25.3294V6.66278C32 5.19691 30.7991 3.99611 29.3333 3.99611H27.3646H4.66667H2.66667ZM2.66667 5.32944H4.42969L15.5755 14.5091C15.695 14.6078 15.8451 14.6617 16 14.6617C16.1549 14.6617 16.305 14.6078 16.4245 14.5091L27.5703 5.32944H29.3333C30.0835 5.32944 30.6667 5.91251 30.6667 6.66278V25.3294C30.6667 26.0796 30.0835 26.6628 29.3333 26.6628H28V9.32944C28.0003 9.20287 27.9645 9.07883 27.8969 8.97183C27.8293 8.86483 27.7326 8.77929 27.6181 8.72521C27.5037 8.67113 27.3762 8.65074 27.2506 8.66643C27.125 8.68212 27.0065 8.73324 26.9089 8.81382L16 17.7982L5.09115 8.81382C4.9694 8.71401 4.81626 8.66051 4.65885 8.66278C4.48341 8.66485 4.31585 8.736 4.19251 8.8608C4.06918 8.9856 4.00001 9.15398 4 9.32944V26.6628H2.66667C1.91647 26.6628 1.33333 26.0796 1.33333 25.3294V6.66278C1.33333 5.91251 1.91647 5.32944 2.66667 5.32944ZM6.52604 5.32944H25.474L16 13.1315L6.52604 5.32944ZM5.33333 10.7409L15.5755 19.1758C15.695 19.2744 15.8451 19.3284 16 19.3284C16.1549 19.3284 16.305 19.2744 16.4245 19.1758L26.6667 10.7409V26.6628H5.33333V10.7409Z" fill="black"/>
</svg>
