<svg width="32" height="32" viewBox="0 0 32 32" fill="none" xmlns="http://www.w3.org/2000/svg">
<g clip-path="url(#clip0_180_628)">
<path d="M3.63636 0C1.645 0 0 1.645 0 3.63636V28.3636C0 30.355 1.645 32 3.63636 32H28.3636C30.355 32 32 30.355 32 28.3636V3.63636C32 1.645 30.355 0 28.3636 0H3.63636ZM3.63636 2.90909H28.3636C28.781 2.90909 29.0909 3.219 29.0909 3.63636V28.3636C29.0909 28.781 28.781 29.0909 28.3636 29.0909H3.63636C3.219 29.0909 2.90909 28.781 2.90909 28.3636V3.63636C2.90909 3.219 3.219 2.90909 3.63636 2.90909ZM7.90909 5.40909C6.52727 5.40909 5.40909 6.52873 5.40909 7.90909C5.40909 9.28945 6.52582 10.4091 7.90909 10.4091C9.288 10.4091 10.4091 9.28945 10.4091 7.90909C10.4091 6.53018 9.288 5.40909 7.90909 5.40909ZM21.0455 12.0455C18.9582 12.0455 17.5731 13.1876 17 14.2727H16.9091V12.3636H12.8182V26.1818H17.0909V19.3636C17.0909 17.5629 17.4491 15.8182 19.6818 15.8182C21.8825 15.8182 21.9091 17.8531 21.9091 19.4545V26.1818H26.1818V18.5909C26.1818 14.8731 25.3902 12.0455 21.0455 12.0455ZM5.81818 12.3636V26.1818H10.1364V12.3636H5.81818Z" fill="black"/>
</g>
<defs>
<clipPath id="clip0_180_628">
<rect width="32" height="32" fill="white"/>
</clipPath>
</defs>
</svg>
