<svg width="32" height="32" viewBox="0 0 32 32" fill="none" xmlns="http://www.w3.org/2000/svg">
<path fill-rule="evenodd" clip-rule="evenodd" d="M16 32C7.16344 32 0 24.8366 0 16C0 7.16344 7.16344 0 16 0C24.8366 0 32 7.16344 32 16C32 24.8366 24.8366 32 16 32ZM16.0458 19.3829C14.1522 19.3829 12.6172 17.8478 12.6172 15.9543C12.6172 14.0607 14.1522 12.5257 16.0458 12.5257C17.9393 12.5257 19.4743 14.0607 19.4743 15.9543C19.4743 17.8478 17.9393 19.3829 16.0458 19.3829Z" fill="#606060"/>
<path d="M20.1031 20.7155C20.0035 20.3437 20.3437 20.0035 20.7155 20.1031L28.2202 22.114C28.592 22.2136 28.7166 22.6784 28.4444 22.9505L22.9505 28.4444C22.6784 28.7166 22.2136 28.592 22.114 28.2202L20.1031 20.7155Z" fill="#272727"/>
<path d="M11.2576 20.1031C11.6293 20.0035 11.9695 20.3437 11.8699 20.7155L9.85904 28.2202C9.75942 28.592 9.29469 28.7166 9.02252 28.4444L3.52867 22.9505C3.2565 22.6784 3.38103 22.2136 3.75281 22.114L11.2576 20.1031Z" fill="#272727"/>
<path d="M20.7156 11.87C20.3438 11.9696 20.0036 11.6294 20.1032 11.2576L22.1141 3.75284C22.2137 3.38105 22.6785 3.25653 22.9506 3.52869L28.4445 9.02255C28.7166 9.29471 28.5921 9.75944 28.2203 9.85906L20.7156 11.87Z" fill="#272727"/>
<path d="M11.87 11.2576C11.9696 11.6294 11.6294 11.9696 11.2576 11.87L3.7529 9.85907C3.38111 9.75945 3.25659 9.29472 3.52875 9.02255L9.02261 3.5287C9.29477 3.25653 9.7595 3.38106 9.85912 3.75284L11.87 11.2576Z" fill="#272727"/>
</svg>
