<svg width="32" height="32" viewBox="0 0 32 32" fill="none" xmlns="http://www.w3.org/2000/svg">
<g clip-path="url(#clip0_164_267)">
<path d="M3.6923 30.08H0.738451C0.541528 30.08 0.344604 30.2277 0.344604 30.4738C0.344604 30.72 0.492297 30.8677 0.738451 30.8677H3.6923C3.88922 30.8677 4.08614 30.72 4.08614 30.4738C4.08614 30.2277 3.88922 30.08 3.6923 30.08Z" fill="black"/>
<path d="M5.66154 30.08H5.16924C4.97231 30.08 4.77539 30.2277 4.77539 30.4738C4.77539 30.72 4.92308 30.8677 5.16924 30.8677H5.66154C5.85847 30.8677 6.05539 30.72 6.05539 30.4738C6.05539 30.2277 5.85847 30.08 5.66154 30.08Z" fill="black"/>
<path d="M31.2616 2.01847H30.6216V1.42771C30.6216 1.23078 30.4739 1.03386 30.2277 1.03386C29.9816 1.03386 29.8339 1.18155 29.8339 1.42771V2.06771H29.1939C28.997 2.06771 28.8 2.2154 28.8 2.46155C28.8 2.70771 28.9477 2.8554 29.1939 2.8554H29.8339V3.4954C29.8339 3.69232 29.9816 3.88924 30.2277 3.88924C30.4739 3.88924 30.6216 3.74155 30.6216 3.4954V2.75694H31.2616C31.4585 2.75694 31.6554 2.60924 31.6554 2.36309C31.6554 2.11694 31.4585 2.01847 31.2616 2.01847Z" fill="black"/>
<path d="M2.70764 25.8954H24.3692C25.6492 25.8954 26.7323 24.8615 26.7323 23.5323V2.31385C26.7323 2.21539 26.683 2.11693 26.6338 2.0677L25.0092 0.492315C24.8615 0.344623 24.6153 0.344623 24.4676 0.492315L23.1384 1.82155L21.8092 0.492315C21.6615 0.344623 21.4153 0.344623 21.2676 0.492315L19.9384 1.82155L18.6092 0.492315C18.4615 0.344623 18.2153 0.344623 18.0676 0.492315L16.7384 1.82155L15.4092 0.492315C15.2615 0.344623 15.0153 0.344623 14.8676 0.492315L13.5384 1.82155L12.2092 0.492315C12.0615 0.344623 11.8153 0.344623 11.6676 0.492315L10.3384 1.82155L9.00918 0.492315C8.86149 0.344623 8.61534 0.344623 8.46765 0.492315L7.13841 1.82155L5.80918 0.492315C5.66149 0.344623 5.41534 0.344623 5.26764 0.492315L3.93841 1.82155L2.60918 0.492315C2.46149 0.344623 2.21534 0.344623 2.06764 0.492315L0.49226 2.0677C0.393799 2.16616 0.393799 2.21539 0.393799 2.31385V23.5323C0.393799 24.8615 1.42764 25.8954 2.70764 25.8954ZM1.13226 2.51078L2.36303 1.28001L3.69226 2.60924C3.83995 2.75693 4.08611 2.75693 4.2338 2.60924L5.56303 1.28001L6.89226 2.60924C7.03995 2.75693 7.28611 2.75693 7.4338 2.60924L8.76303 1.28001L10.0923 2.60924C10.24 2.75693 10.4861 2.75693 10.6338 2.60924L11.963 1.28001L13.2923 2.60924C13.44 2.75693 13.6861 2.75693 13.8338 2.60924L15.163 1.28001L16.4923 2.60924C16.64 2.75693 16.8861 2.75693 17.0338 2.60924L18.363 1.28001L19.6923 2.60924C19.84 2.75693 20.0861 2.75693 20.2338 2.60924L21.563 1.28001L22.8923 2.60924C23.04 2.75693 23.2861 2.75693 23.4338 2.60924L24.763 1.28001L25.9938 2.51078V23.5815C25.9938 24.4677 25.2553 25.2062 24.3692 25.2062H2.70764C1.82149 25.2062 1.08303 24.4677 1.08303 23.5815V2.51078H1.13226Z" fill="black"/>
<path d="M2.70769 9.15694H24.3692C24.5662 9.15694 24.7631 9.00924 24.7631 8.76309V3.84001C24.7631 3.64309 24.6154 3.44617 24.3692 3.44617H2.70769C2.51077 3.44617 2.31384 3.59386 2.31384 3.84001V8.76309C2.36307 9.00924 2.51077 9.15694 2.70769 9.15694ZM3.10154 4.23386H24.0246V8.41848H3.10154V4.23386Z" fill="black"/>
<path d="M18.4616 14.8185C16.0985 14.8185 14.1293 16.7385 14.1293 19.1508C14.1293 21.5631 16.0493 23.4831 18.4616 23.4831C20.8739 23.4831 22.7939 21.5631 22.7939 19.1508C22.7939 16.7385 20.8247 14.8185 18.4616 14.8185ZM22.0062 18.7569H20.7754C20.7262 17.6246 20.4308 16.64 20.037 15.9508C21.12 16.4923 21.9077 17.5262 22.0062 18.7569ZM18.117 15.7046V18.8062H16.8862C16.9354 17.1815 17.477 16.0492 18.117 15.7046ZM18.117 19.4954V22.5969C17.5262 22.2523 16.9847 21.0708 16.8862 19.4954H18.117ZM18.8554 22.5969V19.4954H20.0862C19.9877 21.0708 19.4462 22.2523 18.8554 22.5969ZM18.8554 18.7569V15.6554C19.4462 16 19.9877 17.1815 20.0862 18.7569H18.8554ZM16.8862 15.9508C16.4431 16.64 16.197 17.6246 16.1477 18.7569H14.917C15.0154 17.5262 15.8031 16.4923 16.8862 15.9508ZM14.917 19.4954H16.1477C16.197 20.6277 16.4923 21.6123 16.8862 22.3015C15.8031 21.8092 15.0154 20.7262 14.917 19.4954ZM20.037 22.3508C20.48 21.6615 20.7262 20.6769 20.7754 19.5446H22.0062C21.9077 20.7262 21.12 21.8092 20.037 22.3508Z" fill="black"/>
<path d="M2.70769 11.6185H24.3692C24.5662 11.6185 24.7631 11.4708 24.7631 11.2246C24.7631 10.9785 24.6154 10.8308 24.3692 10.8308H2.70769C2.51077 10.8308 2.31384 10.9785 2.31384 11.2246C2.31384 11.4708 2.51077 11.6185 2.70769 11.6185Z" fill="black"/>
<path d="M2.70769 13.5877H24.3692C24.5662 13.5877 24.7631 13.44 24.7631 13.1938C24.7631 12.9477 24.6154 12.8 24.3692 12.8H2.70769C2.51077 12.8 2.31384 12.9477 2.31384 13.1938C2.31384 13.44 2.51077 13.5877 2.70769 13.5877Z" fill="black"/>
<path d="M2.70769 15.5569H12.5538C12.7508 15.5569 12.9477 15.4092 12.9477 15.1631C12.9477 14.9169 12.8 14.7692 12.5538 14.7692H2.70769C2.51077 14.7692 2.31384 14.9169 2.31384 15.1631C2.31384 15.4092 2.51077 15.5569 2.70769 15.5569Z" fill="black"/>
<path d="M2.70769 17.5262H12.5538C12.7508 17.5262 12.9477 17.3785 12.9477 17.1323C12.9477 16.8862 12.8 16.7385 12.5538 16.7385H2.70769C2.51077 16.7385 2.31384 16.8862 2.31384 17.1323C2.31384 17.3785 2.51077 17.5262 2.70769 17.5262Z" fill="black"/>
<path d="M2.70769 19.4954H12.5538C12.7508 19.4954 12.9477 19.3477 12.9477 19.1015C12.9477 18.8554 12.8 18.7077 12.5538 18.7077H2.70769C2.51077 18.7077 2.31384 18.8554 2.31384 19.1015C2.31384 19.3477 2.51077 19.4954 2.70769 19.4954Z" fill="black"/>
<path d="M2.70769 21.4646H12.5538C12.7508 21.4646 12.9477 21.3169 12.9477 21.0708C12.9477 20.8246 12.8 20.6769 12.5538 20.6769H2.70769C2.51077 20.6769 2.31384 20.8246 2.31384 21.0708C2.31384 21.3169 2.51077 21.4646 2.70769 21.4646Z" fill="black"/>
<path d="M2.70769 23.4339H12.5538C12.7508 23.4339 12.9477 23.2862 12.9477 23.04C12.9477 22.7939 12.8 22.6462 12.5538 22.6462H2.70769C2.51077 22.6462 2.31384 22.7939 2.31384 23.04C2.31384 23.2862 2.51077 23.4339 2.70769 23.4339Z" fill="black"/>
<path d="M28.6524 12.5539C28.6031 12.3569 28.4062 12.2092 28.2093 12.2585C28.0124 12.3077 27.8647 12.5046 27.9139 12.7016L30.6708 25.6492C30.72 25.7969 30.6708 25.9939 30.5724 26.0923C30.4739 26.24 30.3262 26.3385 30.1785 26.3385L9.00928 30.8185C8.66466 30.8677 8.36928 30.6708 8.27082 30.3262L7.63082 27.3723C7.58158 27.1754 7.38466 27.0277 7.18774 27.0769C6.99082 27.1262 6.84312 27.3231 6.89235 27.52L7.53235 30.4739C7.68005 31.1139 8.22158 31.5569 8.86158 31.5569C8.96005 31.5569 9.05851 31.5569 9.15697 31.5077L30.3262 27.0277C30.6708 26.9292 30.9662 26.7323 31.1631 26.4369C31.36 26.1416 31.4093 25.7477 31.36 25.4031L28.6524 12.5539Z" fill="black"/>
</g>
<defs>
<clipPath id="clip0_164_267">
<rect width="32" height="32" fill="white"/>
</clipPath>
</defs>
</svg>
