<svg width="32" height="32" viewBox="0 0 32 32" fill="none" xmlns="http://www.w3.org/2000/svg">
<path d="M5.72099 32H4.57881C3.63068 31.9973 2.72234 31.6897 2.0519 31.1444C1.38147 30.5991 1.00334 29.8602 1 29.089V2.91097C1.00334 2.13977 1.38147 1.40093 2.0519 0.855608C2.72234 0.310284 3.63068 0.00272031 4.57881 0H5.72099C6.99213 0.200488 8.15961 0.707666 9.07136 1.45548L29.6178 13.2852C30.5028 14.0053 31 14.9818 31 16C31 17.0182 30.5028 17.9947 29.6178 18.7148L29.4655 18.8284L9.07136 30.5445C8.15961 31.2923 6.99213 31.7995 5.72099 32ZM5.64484 2.06452H4.57881C4.30269 2.06985 4.03989 2.16215 3.84577 2.32197C3.65165 2.48178 3.54138 2.69665 3.53816 2.92129V29.089C3.53816 29.3135 3.6478 29.5288 3.84296 29.6876C4.03812 29.8463 4.30282 29.9355 4.57881 29.9355H5.72099C6.31599 29.6929 6.86343 29.3798 7.34541 29.0065L7.56116 28.9032L27.8665 17.2181C28.233 16.8926 28.4363 16.4672 28.4363 16.0258C28.4363 15.5844 28.233 15.159 27.8665 14.8335L7.34541 2.98323C6.84323 2.60434 6.26894 2.29409 5.64484 2.06452Z" fill="black"/>
<path d="M26 1V9ZM30 5H22Z" fill="black"/>
<path d="M26 1V9M30 5H22" stroke="black" stroke-width="2" stroke-linecap="round"/>
</svg>
