<svg width="32" height="32" viewBox="0 0 32 32" fill="none" xmlns="http://www.w3.org/2000/svg">
<g clip-path="url(#clip0_164_269)">
<path fill-rule="evenodd" clip-rule="evenodd" d="M1.19682 14.8818C0.435043 15.7178 0.00470582 16.8586 2.82446e-05 18.05C-0.00398111 19.2414 0.419006 20.3859 1.17477 21.2286C3.19815 23.4847 5.89979 26.4972 7.91115 28.7407C9.46611 30.4738 11.9826 30.4909 13.5563 28.7787C17.5055 24.4809 24.405 16.9718 26.4758 14.7179C26.862 14.2977 27.0805 13.721 27.0805 13.1189C27.0805 9.96867 27.0805 0 27.0805 0H15.5737C15.0471 0 14.5419 0.230236 14.1671 0.642275C12.119 2.89098 5.18145 10.5066 1.19682 14.8818ZM24.4076 2.98039V11.8806C24.4076 12.4849 24.1878 13.0631 23.7995 13.484C21.7488 15.7052 15.0505 22.9602 12.1156 26.1388C11.3398 26.9785 10.1029 26.9688 9.33781 26.1157C7.74275 24.3379 5.13066 21.4246 3.51823 19.6266C3.14269 19.2079 2.93287 18.6394 2.93554 18.047C2.93755 17.4547 3.15205 16.8884 3.5316 16.4734C6.50854 13.2151 13.2509 5.83486 15.2743 3.62043C15.6492 3.20988 16.1537 2.98039 16.6789 2.98039C18.8186 2.98039 24.4076 2.98039 24.4076 2.98039ZM19.124 4.81482C17.9539 4.826 16.8186 5.57259 16.2733 6.71706C15.8002 7.70879 15.7721 8.94267 16.1945 9.96271C16.7531 11.3128 18.0996 12.2136 19.4567 12.0557C20.8213 11.8977 22.0622 10.6884 22.3328 9.15278C22.5306 8.0329 22.2245 6.81616 21.5222 5.98537C20.9215 5.27529 20.0655 4.83196 19.1868 4.81557C19.1661 4.81482 19.1454 4.81482 19.124 4.81482ZM19.1293 6.69173C19.8677 6.69694 20.5607 7.32431 20.695 8.15286C20.7411 8.43898 20.7237 8.73851 20.6348 9.01271C20.3722 9.81667 19.5523 10.3621 18.7879 10.1572C18.0267 9.95302 17.4534 9.04773 17.5837 8.16777C17.702 7.37126 18.3495 6.70514 19.1006 6.69173C19.1099 6.69173 19.12 6.69173 19.1293 6.69173Z" fill="black"/>
<path fill-rule="evenodd" clip-rule="evenodd" d="M27.0805 1.94769V4.92883H29.3271V13.829C29.3271 14.4333 29.1079 15.0115 28.7196 15.4325C26.6689 17.6536 19.9706 24.9079 17.0357 28.0865C16.2599 28.9269 15.0224 28.9165 14.2579 28.0641L14.2352 28.0388L13.5563 28.7787C13.1132 29.26 12.596 29.605 12.0468 29.8136L12.8312 30.6884C14.3862 32.4222 16.9027 32.4393 18.4757 30.7264C22.425 26.4286 29.3244 18.9203 31.3959 16.6664C31.7821 16.2454 32 15.6687 32 15.0666C32 11.9171 32 1.94769 32 1.94769H27.0805Z" fill="black"/>
</g>
<defs>
<clipPath id="clip0_164_269">
<rect width="32" height="32" fill="white"/>
</clipPath>
</defs>
</svg>
