<svg width="32" height="32" viewBox="0 0 32 32" fill="none" xmlns="http://www.w3.org/2000/svg">
<g clip-path="url(#clip0_164_268)">
<path d="M16.1875 30.998V30.9979L16.1765 30.9982C16.1179 30.9994 16.0591 31 16 31C15.9409 31 15.8821 30.9994 15.8235 30.9982L15.8235 30.9981L15.8125 30.998C7.43405 30.9146 1 25.3495 1 18.9111C1 17.8806 1.16244 16.8546 1.48406 15.861L1.48407 15.861L1.73773 15.0773C2.47319 15.4907 3.24971 15.8642 4.06654 16.1983C4.68321 16.4505 5.23342 16.6347 5.69335 16.7195C5.92307 16.7619 6.17136 16.7876 6.41582 16.7661C6.65498 16.7451 6.97744 16.671 7.2569 16.4325C7.45128 16.2666 7.57478 16.0326 7.60206 15.7785C7.87007 13.2823 8.14763 11.2252 8.4337 9.60144C8.8741 7.10173 10.0171 5.1817 11.8545 3.77421C13.4258 2.57055 15.5553 1.70394 18.2956 1.22086C17.0701 4.91811 17.2854 7.43073 17.7599 8.96452L18.7153 8.66898L17.7599 8.96453C18.0195 9.80364 18.4789 10.6131 19.0357 11.2541C19.5765 11.8767 20.3028 12.4456 21.1362 12.6161C22.5506 12.9054 23.8561 12.6749 24.853 11.7276C25.3975 11.2103 25.7959 10.5278 26.0789 9.72243C26.2538 9.91298 26.4256 10.0993 26.5942 10.282C29.1794 13.0841 31 15.0574 31 18.9111C31 25.3495 24.566 30.9146 16.1875 30.998Z" stroke="black" stroke-width="2" stroke-linecap="round" stroke-linejoin="round"/>
<path d="M19.2135 23.9917L19.2134 23.9917L19.2032 23.9963C17.1522 24.9184 14.7241 24.3263 13.7615 22.9923C12.9841 21.9152 12.8104 20.9865 13.0333 20.1357C13.2454 19.3265 13.8573 18.4262 15.0341 17.4574C16.7445 18.071 18.0853 18.6139 19.0679 19.0857C19.608 19.3451 20.022 19.5745 20.3225 19.773C20.6382 19.9814 20.7654 20.1149 20.7999 20.1627C21.256 20.7946 21.3277 21.4905 21.0942 22.1417C20.8543 22.8105 20.2644 23.494 19.2915 23.9555L19.2915 23.9554L19.2813 23.9604C19.2703 23.9658 19.2591 23.9711 19.2477 23.9763C19.2363 23.9816 19.2249 23.9867 19.2135 23.9917Z" stroke="black" stroke-width="2" stroke-linecap="round" stroke-linejoin="round"/>
</g>
<defs>
<clipPath id="clip0_164_268">
<rect width="32" height="32" fill="white"/>
</clipPath>
</defs>
</svg>
